<svg width="32" height="32" viewBox="0 0 32 32" fill="none" xmlns="http://www.w3.org/2000/svg">
<path d="M8.5 28H7.5V29H8.5V28Z" fill="#423F51"/>
<path d="M19 22H10.5V14.5C10.5 14.3674 10.4473 14.2402 10.3536 14.1464C10.2598 14.0527 10.1326 14 10 14H1C0.867392 14 0.740215 14.0527 0.646447 14.1464C0.552678 14.2402 0.5 14.3674 0.5 14.5V30.5C0.5 30.6326 0.552678 30.7598 0.646447 30.8536C0.740215 30.9473 0.867392 31 1 31H19C19.1326 31 19.2598 30.9473 19.3536 30.8536C19.4473 30.7598 19.5 30.6326 19.5 30.5V22.5C19.5 22.3674 19.4473 22.2402 19.3536 22.1464C19.2598 22.0527 19.1326 22 19 22ZM13.5 23H15.5V25H13.5V23ZM4.5 15H6.5V17H4.5V15ZM1.5 15H3.5V17.5C3.5 17.6326 3.55268 17.7598 3.64645 17.8536C3.74021 17.9473 3.86739 18 4 18H7C7.13261 18 7.25979 17.9473 7.35355 17.8536C7.44732 17.7598 7.5 17.6326 7.5 17.5V15H9.5V22H1.5V15ZM4.5 23H6.5V25H4.5V23ZM1.5 23H3.5V25.5C3.5 25.6326 3.55268 25.7598 3.64645 25.8536C3.74021 25.9473 3.86739 26 4 26H7C7.13261 26 7.25979 25.9473 7.35355 25.8536C7.44732 25.7598 7.5 25.6326 7.5 25.5V23H9.5V30H1.5V23ZM18.5 30H10.5V23H12.5V25.5C12.5 25.6326 12.5527 25.7598 12.6464 25.8536C12.7402 25.9473 12.8674 26 13 26H16C16.1326 26 16.2598 25.9473 16.3536 25.8536C16.4473 25.7598 16.5 25.6326 16.5 25.5V23H18.5V30Z" fill="#423F51"/>
<path d="M17.5 28H16.5V29H17.5V28Z" fill="#423F51"/>
<path d="M8.5 20H7.5V21H8.5V20Z" fill="#423F51"/>
<path d="M29.8828 6.98602C29.9212 6.99534 29.9605 7.00004 30.0001 7.00002C30.0877 6.99995 30.1738 6.97692 30.2497 6.93324C30.3257 6.88955 30.3888 6.82672 30.4329 6.75102C30.4784 6.67108 30.5015 6.58044 30.5001 6.48852V4.50002C30.5001 4.38782 30.4623 4.27888 30.3929 4.19073C30.3235 4.10258 30.2264 4.04034 30.1174 4.01402L15.6174 0.514017C15.5403 0.495328 15.4598 0.495328 15.3828 0.514017L0.882757 4.01402C0.773691 4.04034 0.676648 4.10258 0.607236 4.19073C0.537825 4.27888 0.500079 4.38782 0.500069 4.50002V6.48583C0.49836 6.59052 0.52829 6.6933 0.585944 6.7807C0.643157 6.86484 0.724638 6.92955 0.819542 6.96623C0.914446 7.00291 1.01827 7.00981 1.11719 6.98602L2.00007 6.77295V13H3.00007V6.53158L15.5001 3.51433L28.0001 6.53158V30H25.0001V10.5C25.0001 10.3674 24.9474 10.2402 24.8536 10.1465C24.7599 10.0527 24.6327 10 24.5001 10H6.50007C6.36746 10 6.24028 10.0527 6.14652 10.1465C6.05275 10.2402 6.00007 10.3674 6.00007 10.5V12.5C6.00007 12.6326 6.05275 12.7598 6.14652 12.8536C6.24028 12.9473 6.36746 13 6.50007 13H24.0001V14H11.5001V15H24.0001V16H11.5001V17H24.0001V18H11.5001V19H24.0001V30H20.5001V31H30.5001V30H29.0001V6.77295L29.8828 6.98602ZM7.00007 12V11H24.0001V12H7.00007ZM15.5001 2.50002C15.4605 2.5 15.4212 2.5047 15.3828 2.51402L1.50007 5.86495V4.89377L15.5001 1.51439L29.5001 4.89377V5.86502L15.6174 2.51402C15.579 2.5047 15.5396 2.5 15.5001 2.50002Z" fill="#423F51"/>
<path d="M16.5 8.5C16.8978 8.5 17.2794 8.34196 17.5607 8.06066C17.842 7.77936 18 7.39782 18 7C18 6.60218 17.842 6.22064 17.5607 5.93934C17.2794 5.65804 16.8978 5.5 16.5 5.5H14.5C14.1022 5.5 13.7206 5.65804 13.4393 5.93934C13.158 6.22064 13 6.60218 13 7C13 7.39782 13.158 7.77936 13.4393 8.06066C13.7206 8.34196 14.1022 8.5 14.5 8.5H16.5ZM14 7C14.0001 6.86744 14.0529 6.74035 14.1466 6.64661C14.2403 6.55288 14.3674 6.50015 14.5 6.5H16.5C16.6326 6.5 16.7598 6.55268 16.8536 6.64645C16.9473 6.74021 17 6.86739 17 7C17 7.13261 16.9473 7.25979 16.8536 7.35355C16.7598 7.44732 16.6326 7.5 16.5 7.5H14.5C14.3674 7.49985 14.2403 7.44712 14.1466 7.35339C14.0529 7.25965 14.0001 7.13256 14 7Z" fill="#423F51"/>
</svg>
